<svg xmlns="http://www.w3.org/2000/svg" xmlns:xlink="http://www.w3.org/1999/xlink" width="40" height="40" viewBox="0 0 40 40">
	<defs>
		<clipPath id="clip-vychod">
			<rect width="40" height="40"/>
		</clipPath>
	</defs>
	<g id="vychod" clip-path="url(#clip-vychod)" fill="transparent">
		<rect width="40" height="40"/>
		<g transform="translate(-155.5 -50.003)" >
			<path class="sun" d="M11.528-7.243H-21.528a.965.965,0,0,0-.972.957v.957a.965.965,0,0,0,.972.957H11.528a.965.965,0,0,0,.972-.957v-.957A.965.965,0,0,0,11.528-7.243Zm-22.434-20.1h3.962v4.786a.965.965,0,0,0,.972.957h1.944a.965.965,0,0,0,.972-.957v-4.786H.906a.955.955,0,0,0,.681-1.639L-4.271-34.7A1.2,1.2,0,0,0-5-35a1.2,1.2,0,0,0-.729.3l-5.858,5.725A.953.953,0,0,0-10.906-27.342Z" transform="translate(181 90)" fill="#2388c8"/>
			<path class="cloud" d="M-6.42-8.5A5.8,5.8,0,0,0-9.252-6.015H.908A5.908,5.908,0,0,0-6.42-8.5ZM9.427-9.7l-6.471-.455-.462-6.371A1.073,1.073,0,0,0,1.433-17.5a1.244,1.244,0,0,0-.7.255l-4.9,4.187-4.9-4.187a1.244,1.244,0,0,0-.7-.255,1.073,1.073,0,0,0-1.061.973l-.462,6.371-6.471.455a1.07,1.07,0,0,0-.988,1.044,1.2,1.2,0,0,0,.259.685l1.726,1.959h5.323c.012-.03.012-.06.024-.084A7.9,7.9,0,0,1-1.164-10.28,8.894,8.894,0,0,1,3.107-6.015H8.43l1.726-1.956a1.2,1.2,0,0,0,.261-.687A1.069,1.069,0,0,0,9.427-9.7Z" transform="translate(180.166 85.901)" fill="#e9c313"/>
		</g>
	</g>
</svg>
