<svg aria-hidden="true" style="position: absolute; width: 0; height: 0; overflow: hidden;" version="1.1" xmlns="http://www.w3.org/2000/svg" xmlns:xlink="http://www.w3.org/1999/xlink">
<defs>
<symbol id="bourka" viewBox="0 0 40 40">
    <g transform="translate(-156 -50)">
        <path fill="var(--weather-cloud)" class="cloud" d="M11-21.437A5.815,5.815,0,0,0,5.187-27.25c-.036,0-.067.012-.1.012a5.693,5.693,0,0,0,.1-.953c0-.008,0-.02,0-.028A4.846,4.846,0,0,0,.344-33.062,4.807,4.807,0,0,0-3.35-31.319,6.741,6.741,0,0,0-9.344-35h0a6.78,6.78,0,0,0-6.778,6.778v0A8.3,8.3,0,0,0-16-26.935a5.793,5.793,0,0,0-4,5.5,5.815,5.815,0,0,0,5.812,5.812h1.968l.963-7.217a2.934,2.934,0,0,1,2.821-2.47h5.146A2.847,2.847,0,0,1-.444-22.467a3.42,3.42,0,0,1-.1.733l-.66,2.476H.654a2.833,2.833,0,0,1,2.832,2.832,3.4,3.4,0,0,1-.115.8H5.187A5.815,5.815,0,0,0,11-21.437Z" transform="translate(181 90)"/>
        <path fill="var(--weather-sun)" class="lightning" d="M4-12.825a1.072,1.072,0,0,0,.122-.454.909.909,0,0,0-.908-.908H-1.148L.219-18.856a1.089,1.089,0,0,0,.031-.236A.909.909,0,0,0-.658-20H-5.624a.94.94,0,0,0-.9.787l-.969,7.871a1.106,1.106,0,0,0-.008.121.909.909,0,0,0,.908.908h4.906L-3.6-1.745a1.091,1.091,0,0,0-.026.216.909.909,0,0,0,.908.908,1,1,0,0,0,.789-.458Z" transform="translate(178.188 86.621)"/>
    </g>
</symbol>
<symbol id="jasno" viewBox="0 0 40 40">
    <g transform="translate(-156 -51)">
    <path fill="var(--weather-sun)" class="sun" d="M4.125-16.688A5.827,5.827,0,0,0-1.688-22.5,5.815,5.815,0,0,0-7.5-16.688a5.815,5.815,0,0,0,5.812,5.812A5.815,5.815,0,0,0,4.125-16.688Z" transform="translate(178.187 87.187)"/>
    <path fill="var(--weather-sun)" class="sun" d="M10.42-20.439,4.686-23.3l2.028-6.079a1.047,1.047,0,0,0-1.326-1.326L-.691-28.679l-2.871-5.74A1.147,1.147,0,0,0-4.5-35a1.147,1.147,0,0,0-.938.581L-8.3-28.685l-6.085-2.028a1.047,1.047,0,0,0-1.326,1.326l2.028,6.079-5.734,2.87A1.147,1.147,0,0,0-20-19.5a1.147,1.147,0,0,0,.581.938l5.734,2.864-2.028,6.085a1.047,1.047,0,0,0,1.326,1.326l6.079-2.028,2.864,5.734A1.147,1.147,0,0,0-4.506-4a1.147,1.147,0,0,0,.938-.581L-.7-10.315,5.376-8.287A1.047,1.047,0,0,0,6.7-9.613L4.674-15.692l5.734-2.864A1.146,1.146,0,0,0,11-19.5,1.149,1.149,0,0,0,10.42-20.439ZM.98-14.021a7.758,7.758,0,0,1-10.959,0A8.912,8.912,0,0,1-12.245-19.5,8.912,8.912,0,0,1-9.978-24.98a7.758,7.758,0,0,1,10.959,0A8.912,8.912,0,0,1,3.247-19.5,8.912,8.912,0,0,1,.98-14.021Z" transform="translate(181 90)"/>
</symbol>
<symbol id="mlha" viewBox="0 0 40 40">
    <g transform="translate(-156 -51)">
        <path fill="var(--weather-cloud)" class="cloud" d="M-20-21a6,6,0,0,0,6,6H6a6,6,0,0,0,6-6,6,6,0,0,0-6-6c-.037,0-.069.013-.1.013a5.876,5.876,0,0,0,.1-.983c0-.008,0-.021,0-.029a5,5,0,0,0-5-5,4.962,4.962,0,0,0-3.812,1.8A6.959,6.959,0,0,0-9-35h0a7,7,0,0,0-7,7v0a8.563,8.563,0,0,0,.131,1.325A5.98,5.98,0,0,0-20-21Z" transform="translate(180 90)"/>
        <path fill="var(--weather-water)" class="water" d="M-12-.25h-8a1,1,0,0,0-1,1v1a1,1,0,0,0,1,1h8a1,1,0,0,0,1-1v-1A1,1,0,0,0-12-.25Zm26,0H-7a1,1,0,0,0-1,1v1a1,1,0,0,0,1,1H14a1,1,0,0,0,1-1v-1A1,1,0,0,0,14-.25Zm-3-4v-1a1,1,0,0,0-1-1H-24a1,1,0,0,0-1,1v1a1,1,0,0,0,1,1H10A1,1,0,0,0,11-4.25Z" transform="translate(181 84.25)"/>
    </g>
</symbol>
<symbol id="oblacno" viewBox="0 0 40 40">
    <g transform="translate(-150.985 -47.497)">
        <path fill="var(--weather-cloud)" class="cloud" d="M5.986-18.217a6.1,6.1,0,0,0-4.959-5.6,4.8,4.8,0,0,0,.31-1.544h0v0a4.477,4.477,0,0,0-4.646-4.283,5.792,5.792,0,0,0-2.583.723A8.729,8.729,0,0,0-12.609-32.5c-4.277,0-7.748,3.2-7.748,7.142v0c0,.121,0,.241.01.362a6.936,6.936,0,0,0-4.667,6.066A6.72,6.72,0,0,0-18.042-12.5H-.213A5.973,5.973,0,0,0,5.986-18.217Z" transform="translate(181 90)"/>
    </g>
</symbol>
<symbol id="oblacnosdestem" viewBox="0 0 40 40">
    <g transform="translate(-156 -50)">
        <path fill="var(--weather-cloud)" class="cloud" d="M11-21.437A5.815,5.815,0,0,0,5.187-27.25c-.036,0-.067.012-.1.012a5.693,5.693,0,0,0,.1-.953c0-.008,0-.02,0-.028A4.846,4.846,0,0,0,.344-33.062,4.807,4.807,0,0,0-3.35-31.319,6.741,6.741,0,0,0-9.344-35h0a6.78,6.78,0,0,0-6.778,6.778v0A8.3,8.3,0,0,0-16-26.935a5.793,5.793,0,0,0-4,5.5,5.815,5.815,0,0,0,5.812,5.812H5.187A5.815,5.815,0,0,0,11-21.437Z" transform="translate(181 90)"/>
        <path fill="var(--weather-water)" class="water" d="M-13.828-5.873C-14.6-3.185-16.25-2.459-16.25-.564a2.971,2.971,0,0,0,2.906,3.033A2.971,2.971,0,0,0-10.437-.564c0-1.9-1.647-2.609-2.422-5.309a.527.527,0,0,0-.484-.376A.527.527,0,0,0-13.828-5.873Zm9.687,0C-4.916-3.185-6.562-2.459-6.562-.564A2.971,2.971,0,0,0-3.656,2.469,2.971,2.971,0,0,0-.75-.564c0-1.9-1.647-2.609-2.422-5.309a.527.527,0,0,0-.484-.376A.527.527,0,0,0-4.141-5.873Zm10.656,0a.527.527,0,0,0-.484-.376.527.527,0,0,0-.484.376C4.772-3.185,3.125-2.459,3.125-.564A2.971,2.971,0,0,0,6.031,2.469,2.971,2.971,0,0,0,8.938-.564C8.938-2.465,7.291-3.173,6.516-5.873Z" transform="translate(180.156 83.531)"/>
    </g>
</symbol>
<symbol id="oblacnosesnezenim" viewBox="0 0 40 40">
    <g transform="translate(-156 -50)">
        <path fill="var(--weather-water)" class="water" d="M-20-21.437a5.815,5.815,0,0,0,5.812,5.812H5.187A5.815,5.815,0,0,0,11-21.437,5.815,5.815,0,0,0,5.187-27.25c-.036,0-.067.012-.1.012a5.693,5.693,0,0,0,.1-.953c0-.008,0-.02,0-.028A4.846,4.846,0,0,0,.344-33.062,4.807,4.807,0,0,0-3.35-31.319,6.741,6.741,0,0,0-9.344-35h0a6.78,6.78,0,0,0-6.778,6.778v0A8.3,8.3,0,0,0-16-26.935,5.793,5.793,0,0,0-20-21.437Z" transform="translate(181 90)"/>
        <path fill="var(--weather-cloud)" class="cloud" d="M-12.316-5.254-12.8-6.1a.536.536,0,0,0-.418-.24.572.572,0,0,0-.242.065l-1.7.975v-1.72A.485.485,0,0,0-15.64-7.5h-.969a.485.485,0,0,0-.484.484V-5.3l-1.7-.975a.572.572,0,0,0-.242-.065.536.536,0,0,0-.418.24l-.484.842A.572.572,0,0,0-20-5.012a.536.536,0,0,0,.24.418l1.689.969-1.689.969a.536.536,0,0,0-.24.418A.572.572,0,0,0-19.933-2l.484.842a.536.536,0,0,0,.418.24.572.572,0,0,0,.242-.065l1.7-.975v1.72a.485.485,0,0,0,.484.484h.969a.485.485,0,0,0,.484-.484v-1.72l1.7.975a.572.572,0,0,0,.242.065.536.536,0,0,0,.418-.24L-12.316-2a.572.572,0,0,0,.065-.242.536.536,0,0,0-.24-.418l-1.689-.969,1.689-.969a.536.536,0,0,0,.24-.418A.572.572,0,0,0-12.316-5.254ZM-.691-3.316l-.484-.842a.536.536,0,0,0-.418-.24.572.572,0,0,0-.242.065l-1.7.975v-1.72a.485.485,0,0,0-.484-.484h-.969a.485.485,0,0,0-.484.484v1.72l-1.7-.975A.572.572,0,0,0-7.405-4.4a.536.536,0,0,0-.418.24l-.484.842a.572.572,0,0,0-.065.242.536.536,0,0,0,.24.418l1.689.969-1.689.969a.536.536,0,0,0-.24.418.572.572,0,0,0,.065.242l.484.842a.536.536,0,0,0,.418.24A.572.572,0,0,0-7.163.958l1.7-.975V1.7a.485.485,0,0,0,.484.484h.969A.485.485,0,0,0-3.531,1.7V-.016l1.7.975a.572.572,0,0,0,.242.065.536.536,0,0,0,.418-.24l.484-.842A.572.572,0,0,0-.626-.3a.536.536,0,0,0-.24-.418l-1.689-.969,1.689-.969a.536.536,0,0,0,.24-.418A.572.572,0,0,0-.691-3.316Zm11.449.66L9.069-3.625l1.689-.969A.536.536,0,0,0,11-5.012a.572.572,0,0,0-.065-.242L10.45-6.1a.536.536,0,0,0-.418-.24.572.572,0,0,0-.242.065l-1.7.975v-1.72A.485.485,0,0,0,7.61-7.5H6.641a.485.485,0,0,0-.484.484V-5.3l-1.7-.975a.572.572,0,0,0-.242-.065A.536.536,0,0,0,3.8-6.1l-.484.842a.572.572,0,0,0-.065.242.536.536,0,0,0,.24.418l1.689.969-1.689.969a.536.536,0,0,0-.24.418A.572.572,0,0,0,3.317-2l.484.842a.536.536,0,0,0,.418.24.572.572,0,0,0,.242-.065l1.7-.975v1.72A.485.485,0,0,0,6.641.25H7.61a.485.485,0,0,0,.484-.484v-1.72l1.7.975a.572.572,0,0,0,.242.065.536.536,0,0,0,.418-.24L10.934-2A.572.572,0,0,0,11-2.238.536.536,0,0,0,10.758-2.656Z" transform="translate(180.999 83.813)"/>
    </g>
</symbol>
<symbol id="polojasno" viewBox="0 0 40 40">
    <g transform="translate(-156 -51)">
        <path fill="var(--weather-cloud)" class="cloud" d="M13.7-11.522v0c.019-.1.041-.253.05-.35v-.009a3.99,3.99,0,0,0-3.988-3.988,4.691,4.691,0,0,0-2.143.625A7,7,0,0,0,1.25-19.372a7,7,0,0,0-7,7c0,.188.044.362.056.544A5.983,5.983,0,0,0-11.25-5.873a6,6,0,0,0,6,6h17a6,6,0,0,0,6-6A5.98,5.98,0,0,0,13.7-11.522Z" transform="translate(178.25 86.874)"/>
        <path fill="var(--weather-sun)" class="sun" d="M-2.075-31.132-7.563-29.3l-2.594-5.174A1.034,1.034,0,0,0-11-35a1.034,1.034,0,0,0-.847.525L-14.438-29.3l-5.494-1.831a1.14,1.14,0,0,0-.295-.047.952.952,0,0,0-.952.952,1.14,1.14,0,0,0,.047.294l1.831,5.487-5.175,2.593a1.034,1.034,0,0,0-.525.847,1.034,1.034,0,0,0,.525.847l5.175,2.587-1.831,5.486a1.133,1.133,0,0,0-.049.3.948.948,0,0,0,.947.947,1.134,1.134,0,0,0,.3-.049l4.756-1.581a9.656,9.656,0,0,1,1.475-2.1,8.218,8.218,0,0,1-2.25-1.5,8.03,8.03,0,0,1-2.1-5,7,7,0,0,1,7-7,7.6,7.6,0,0,1,6.4,4.156,10.791,10.791,0,0,1,1.919-.469l1.862-5.556a1.136,1.136,0,0,0,.049-.3.948.948,0,0,0-.948-.948A1.137,1.137,0,0,0-2.075-31.132ZM-11-26.25h-.01a5.242,5.242,0,0,0-5.241,5.241,5.452,5.452,0,0,0,4.244,5.145,9.649,9.649,0,0,1,1.575-.731,10.194,10.194,0,0,1,4.213-6.562A5.72,5.72,0,0,0-11-26.25Z" transform="translate(181 90)"/>
    </g>
</symbol>
<symbol id="skorojasno" viewBox="0 0 40 40">
    <g transform="translate(-156 -51)">
        <path fill="var(--weather-cloud)" class="cloud" d="M20-14.5s0-.013,0-.017A3.984,3.984,0,0,0,16.017-18.5a4.7,4.7,0,0,0-2.061.575A5.072,5.072,0,0,0,8.989-22.5,5.19,5.19,0,0,0,4.1-18.488c-.031,0-.062-.013-.1-.013a4,4,0,0,0-4,4,4,4,0,0,0,4,4H16A4.007,4.007,0,0,0,20-14.5Z" transform="translate(176 87.5)"/>
        <path fill="var(--weather-sun)" class="sun" d="M1.837-11H-1a6.929,6.929,0,0,1-3.662-1.281,8.015,8.015,0,0,1-9.994-1.056,9.206,9.206,0,0,1-2.261-5.574,8,8,0,0,1,8-8A9.206,9.206,0,0,1-3.344-24.65a9.424,9.424,0,0,1,1.131,1.463A8.117,8.117,0,0,1,1.7-26.594L2.568-29.2A1.081,1.081,0,0,0,1.2-30.569l-6.275,2.094L-8.031-34.4A1.184,1.184,0,0,0-9-35a1.184,1.184,0,0,0-.969.6l-2.956,5.919-6.281-2.094a1.081,1.081,0,0,0-1.369,1.369l2.094,6.275L-24.4-19.969A1.184,1.184,0,0,0-25-19a1.184,1.184,0,0,0,.6.969l5.919,2.956-2.094,6.281a1.081,1.081,0,0,0,1.369,1.369l6.275-2.094L-9.975-3.6a1.184,1.184,0,0,0,.969.6,1.184,1.184,0,0,0,.969-.6l2.956-5.919L1.193-7.425A1.081,1.081,0,0,0,2.562-8.794ZM-3.944-22.206a6.7,6.7,0,0,0-5.112-2.839,6.025,6.025,0,0,0-6.022,6.022A6.025,6.025,0,0,0-9.056-13a7.113,7.113,0,0,0,3-.8A7,7,0,0,1-7-17,5.982,5.982,0,0,1-3.944-22.206Z" transform="translate(181 90)"/>
    </g>
</symbol>
<symbol id="zatazeno" viewBox="0 0 40 40">
    <g transform="translate(-153 -49)">
        <path fill="var(--weather-water)" class="water" d="M13-7.75A5.252,5.252,0,0,0,7.75-13c-.033,0-.06.011-.087.011a5.142,5.142,0,0,0,.088-.86c0-.007,0-.018,0-.026A4.377,4.377,0,0,0,3.375-18.25,4.341,4.341,0,0,0,.039-16.675,6.106,6.106,0,0,0-5.375-20h0A6.124,6.124,0,0,0-11.5-13.878v0a7.493,7.493,0,0,0,.115,1.159A5.232,5.232,0,0,0-15-7.75,5.252,5.252,0,0,0-9.75-2.5H7.75A5.252,5.252,0,0,0,13-7.75Z" transform="translate(178 85.5)"/>
        <path fill="var(--weather-cloud)" class="cloud" d="M-16.163-19.25a7.861,7.861,0,0,1,7.788-7h0a8.9,8.9,0,0,1,5.76,2.543,7.24,7.24,0,0,1,1.728-.645A6.068,6.068,0,0,0-.5-26.25,5.252,5.252,0,0,0-5.75-31.5a6.185,6.185,0,0,0-2.16.476A6.556,6.556,0,0,0-13.625-35a6.107,6.107,0,0,0-6.038,5.261c-.027,0-.055-.011-.087-.011A5.252,5.252,0,0,0-25-24.5a5.252,5.252,0,0,0,5.25,5.25Z" transform="translate(181 90)"/>
    </g>
</symbol>
<symbol id="zatazenosdestem" viewBox="0 0 40 40">
    <g transform="translate(-153 -55)">
        <path fill="var(--weather-water)" class="water" d="M13-7.75A5.252,5.252,0,0,0,7.75-13c-.033,0-.06.011-.087.011a5.142,5.142,0,0,0,.088-.86c0-.007,0-.018,0-.026A4.377,4.377,0,0,0,3.375-18.25,4.342,4.342,0,0,0,.039-16.675,6.106,6.106,0,0,0-5.375-20h0A6.124,6.124,0,0,0-11.5-13.878v0a7.492,7.492,0,0,0,.115,1.159A5.232,5.232,0,0,0-15-7.75,5.252,5.252,0,0,0-9.75-2.5H7.75A5.252,5.252,0,0,0,13-7.75Z" transform="translate(178 85.5)"/>
        <path fill="var(--weather-cloud)" class="cloud" d="M-16.163-19.25a7.861,7.861,0,0,1,7.788-7h0a8.9,8.9,0,0,1,5.76,2.543,7.24,7.24,0,0,1,1.728-.645A6.068,6.068,0,0,0-.5-26.25,5.252,5.252,0,0,0-5.75-31.5a6.185,6.185,0,0,0-2.16.476A6.556,6.556,0,0,0-13.625-35a6.107,6.107,0,0,0-6.038,5.261c-.027,0-.055-.011-.087-.011A5.252,5.252,0,0,0-25-24.5a5.252,5.252,0,0,0,5.25,5.25Z" transform="translate(181 90)"/>
    </g>
    <path fill="var(--weather-water)" class="water" d="M-13.75-5.861c-.8,2.775-2.5,3.525-2.5,5.481a3.067,3.067,0,0,0,3,3.131,3.067,3.067,0,0,0,3-3.131c0-1.963-1.7-2.693-2.5-5.481a.544.544,0,0,0-.5-.388A.544.544,0,0,0-13.75-5.861Zm10,0c-.8,2.775-2.5,3.525-2.5,5.481a3.067,3.067,0,0,0,3,3.131,3.067,3.067,0,0,0,3-3.131c0-1.963-1.7-2.693-2.5-5.481a.544.544,0,0,0-.5-.388A.544.544,0,0,0-3.749-5.861Zm11,0a.544.544,0,0,0-.5-.388.544.544,0,0,0-.5.388c-.8,2.775-2.5,3.525-2.5,5.481a3.067,3.067,0,0,0,3,3.131,3.067,3.067,0,0,0,3-3.131C9.753-2.342,8.053-3.073,7.253-5.861Z" transform="translate(27 37.249)"/>
</symbol>
<symbol id="zatazenosesnezenim" viewBox="0 0 40 40">
    <g transform="translate(-153 -55)">
        <path fill="var(--weather-cloud)" class="cloud" d="M13-7.75A5.252,5.252,0,0,0,7.75-13c-.033,0-.06.011-.087.011a5.142,5.142,0,0,0,.088-.86c0-.007,0-.018,0-.026A4.377,4.377,0,0,0,3.375-18.25,4.342,4.342,0,0,0,.039-16.675,6.106,6.106,0,0,0-5.375-20h0A6.124,6.124,0,0,0-11.5-13.878v0a7.492,7.492,0,0,0,.115,1.159A5.232,5.232,0,0,0-15-7.75,5.252,5.252,0,0,0-9.75-2.5H7.75A5.252,5.252,0,0,0,13-7.75Z" transform="translate(178 85.5)"/>
        <path fill="var(--weather-water)" class="water" d="M-16.163-19.25a7.861,7.861,0,0,1,7.788-7h0a8.9,8.9,0,0,1,5.76,2.543,7.24,7.24,0,0,1,1.728-.645A6.068,6.068,0,0,0-.5-26.25,5.252,5.252,0,0,0-5.75-31.5a6.185,6.185,0,0,0-2.16.476A6.556,6.556,0,0,0-13.625-35a6.107,6.107,0,0,0-6.038,5.261c-.027,0-.055-.011-.087-.011A5.252,5.252,0,0,0-25-24.5a5.252,5.252,0,0,0,5.25,5.25Z" transform="translate(181 90)" />
    </g>
    <path fill="var(--weather-water)" class="water" d="M-12.861-5.413l-.45-.782a.5.5,0,0,0-.389-.223.531.531,0,0,0-.225.06l-1.575.906v-1.6a.45.45,0,0,0-.45-.45h-.9a.45.45,0,0,0-.45.45v1.6l-1.575-.906a.531.531,0,0,0-.225-.06.5.5,0,0,0-.389.223l-.45.782a.532.532,0,0,0-.06.225.5.5,0,0,0,.223.389l1.569.9-1.569.9A.5.5,0,0,0-20-2.611a.532.532,0,0,0,.06.225l.45.782a.5.5,0,0,0,.389.223.531.531,0,0,0,.225-.06l1.575-.906v1.6a.45.45,0,0,0,.45.45h.9a.45.45,0,0,0,.45-.45v-1.6l1.575.906a.531.531,0,0,0,.225.06.5.5,0,0,0,.389-.223l.45-.782a.532.532,0,0,0,.06-.225A.5.5,0,0,0-13.024-3l-1.569-.9,1.569-.9a.5.5,0,0,0,.223-.389A.532.532,0,0,0-12.861-5.413Zm10.8,1.8-.45-.782A.5.5,0,0,0-2.9-4.618a.531.531,0,0,0-.225.06L-4.7-3.652v-1.6a.45.45,0,0,0-.45-.45h-.9a.45.45,0,0,0-.45.45v1.6l-1.575-.906a.531.531,0,0,0-.225-.06.5.5,0,0,0-.389.223l-.45.782a.532.532,0,0,0-.06.225A.5.5,0,0,0-8.974-3l1.569.9-1.569.9A.5.5,0,0,0-9.2-.811a.532.532,0,0,0,.06.225l.45.782A.5.5,0,0,0-8.3.418a.531.531,0,0,0,.225-.06L-6.5-.548v1.6a.45.45,0,0,0,.45.45h.9a.45.45,0,0,0,.45-.45v-1.6l1.575.906A.531.531,0,0,0-2.9.418.5.5,0,0,0-2.511.195l.45-.782A.532.532,0,0,0-2-.811.5.5,0,0,0-2.224-1.2l-1.569-.9L-2.224-3A.5.5,0,0,0-2-3.389.532.532,0,0,0-2.061-3.613ZM8.576-3,7.006-3.9l1.569-.9A.5.5,0,0,0,8.8-5.189a.532.532,0,0,0-.06-.225l-.45-.782A.5.5,0,0,0,7.9-6.418a.531.531,0,0,0-.225.06L6.1-5.452v-1.6a.45.45,0,0,0-.45-.45h-.9a.45.45,0,0,0-.45.45v1.6L2.726-6.358a.531.531,0,0,0-.225-.06.5.5,0,0,0-.389.223l-.45.782a.532.532,0,0,0-.06.225.5.5,0,0,0,.223.389L3.4-3.9,1.826-3a.5.5,0,0,0-.223.389.532.532,0,0,0,.06.225l.45.782a.5.5,0,0,0,.389.223.531.531,0,0,0,.225-.06L4.3-2.348v1.6a.45.45,0,0,0,.45.45h.9A.45.45,0,0,0,6.1-.75v-1.6l1.575.906a.531.531,0,0,0,.225.06.5.5,0,0,0,.389-.223l.45-.782a.532.532,0,0,0,.06-.225A.5.5,0,0,0,8.576-3Z" transform="translate(29 38.5)"/>
</symbol>
</defs>
</svg>
