<?xml version="1.0" encoding="utf-8"?>
<!-- Generator: Adobe Illustrator 17.0.0, SVG Export Plug-In . SVG Version: 6.00 Build 0)  -->
<!DOCTYPE svg PUBLIC "-//W3C//DTD SVG 1.1//EN" "http://www.w3.org/Graphics/SVG/1.1/DTD/svg11.dtd">
<svg version="1.1" id="Vrstva_1" xmlns="http://www.w3.org/2000/svg" xmlns:xlink="http://www.w3.org/1999/xlink" x="0px" y="0px"
	 width="198.425px" height="198.425px" viewBox="0 0 198.425 198.425" enable-background="new 0 0 198.425 198.425"
	 xml:space="preserve">
<g>
	<g>
		<polyline fill="#A0A0A0" points="83.614,45.67 98.679,28.369 98.679,28.369 114.795,45.67 83.614,45.67 		"/>
	</g>
</g>
<path fill="#E3E3E3" d="M99.243,130.862c-17.09,0.008-31.546-14.455-31.534-31.549c0.012-17.06,14.519-31.475,31.642-31.442
	c16.843,0.032,31.319,14.513,31.35,31.359C130.731,116.343,116.3,130.854,99.243,130.862z"/>
<g>
	<polyline fill="#A0A0A0" points="46.214,114.957 28.913,99.892 28.913,99.892 46.214,83.776 46.214,114.957 	"/>
</g>
<g>
	<polyline fill="#A0A0A0" points="152.752,83.776 170.053,98.841 170.053,98.841 152.752,114.957 152.752,83.776 	"/>
</g>
<g>
	<polyline fill="#A0A0A0" points="114.231,152.772 99.166,170.072 99.166,170.072 83.049,152.772 114.231,152.772 	"/>
</g>
</svg>
